<svg width="227.142883" height="44.000000" viewBox="0 0 227.143 44" fill="none" xmlns="http://www.w3.org/2000/svg" xmlns:xlink="http://www.w3.org/1999/xlink">
	<desc>
			Created with Pixso.
	</desc>
	<defs/>
	<rect id="Rectangle 157" y="11.000000" width="27.000000" height="22.000000" fill="#0D75FF" fill-opacity="0.900000"/>
	<rect id="Rectangle 158" x="27.000000" width="27.000000" height="22.000000" fill="#0D75FF" fill-opacity="1.000000"/>
	<rect id="Rectangle 159" x="21.000000" y="22.000000" width="27.000000" height="22.000000" fill="#0D75FF" fill-opacity="0.800000"/>
	<path id="BookShelter" d="M71.68 35.46Q72.69 36.12 74.67 36.12Q76.3 36.12 78.34 35.71Q80.4 35.3 82.48 34.45Q84.58 33.61 86.33 32.35Q88.1 31.09 89.18 29.4Q89.59 28.76 89.84 28.07Q90.26 26.92 90.26 25.61Q90.26 24.75 89.97 23.82Q89.69 22.88 88.84 22.04Q88 21.19 86.35 20.58Q84.72 19.96 82.05 19.82Q83.46 19.6 84.9 19.13Q86.27 18.69 87.44 17.94Q87.5 17.9 87.56 17.86Q88.26 17.4 88.8 16.8Q89.22 16.34 89.54 15.8Q90.3 14.56 90.3 12.8Q90.3 10.93 89.47 9.79Q89.11 9.3 88.67 8.91Q88.08 8.4 87.34 8.07Q87.01 7.91 86.66 7.78Q85.68 7.42 84.61 7.28Q83.17 7.08 81.98 7.08Q79.17 7.08 77.21 7.69Q75.25 8.3 73.45 9.05Q73.45 9.24 73.66 9.48Q73.74 9.56 73.83 9.64Q73.98 9.77 74.15 9.87Q74.42 10.03 74.6 10.03Q74.86 10.03 75.43 9.65Q76.01 9.27 77.04 8.81Q78.06 8.33 79.58 8.09Q78.63 9.91 77.64 12.3Q76.66 14.67 75.72 17.16Q74.79 19.64 74.01 21.9Q73.24 24.17 72.69 25.87Q72.16 27.56 71.94 28.28Q71.8 28.75 71.61 29.33Q71.44 29.9 71.44 30.33Q71.44 30.6 71.52 30.83Q71.66 31.24 72.04 31.56Q72.18 31.67 72.32 31.76Q72.85 32.06 73.56 32.06Q74.39 29.29 75.18 26.33Q75.97 23.38 76.8 20.47Q77.41 20.47 78.12 20.45Q78.82 20.43 79.5 20.43Q81.04 20.43 82.62 20.59Q84.22 20.75 85.56 21.23Q86.91 21.69 87.74 22.6Q87.88 22.75 88 22.92Q88.58 23.75 88.58 24.97Q88.58 25.17 88.56 25.37Q88.44 26.78 87.51 28.12Q86.45 29.65 84.52 30.88Q82.6 32.1 79.97 32.8Q77.34 33.5 74.24 33.5Q72.4 33.5 71.75 33.31Q71.11 33.14 70.86 33.14Q70.73 33.14 70.7 33.19Q70.68 33.22 70.68 33.25Q70.68 34.44 71.27 35.1Q71.45 35.3 71.68 35.46ZM138.69 35.72Q140.05 36.12 141.52 36.12Q141.62 36.12 141.72 36.12Q143.28 36.09 144.84 35.62Q146.09 35.25 147.18 34.6Q147.54 34.39 147.88 34.15Q148.84 33.47 149.53 32.59Q149.84 32.19 150.09 31.76Q150.15 31.66 150.2 31.57Q150.93 30.21 150.93 28.46Q150.93 26.62 150.14 25.35Q149.9 24.94 149.6 24.56Q148.98 23.77 148.15 23.13Q146.93 22.19 145.54 21.42Q144.15 20.65 142.93 19.87Q141.71 19.1 140.93 18.15Q140.69 17.85 140.52 17.5Q140.16 16.77 140.16 15.86Q140.16 14.74 140.75 13.38Q141.35 12.01 142.43 10.77Q143.05 10.05 143.78 9.49Q144.33 9.07 144.94 8.73Q145.48 8.43 146.06 8.25Q147.02 7.94 148.08 7.94Q149.23 7.94 149.66 8.35Q149.75 8.44 149.82 8.54Q150.09 8.91 150.09 9.48Q150.09 10.28 149.77 11.27Q149.45 12.26 149.03 13.31Q148.62 14.34 148.29 15.32Q147.97 16.29 147.97 17.04Q147.97 17.62 148.24 18.03L148.24 18.04Q148.25 18.05 148.25 18.06Q148.53 18.45 149.16 18.6Q149.73 17.66 150.38 16.31Q151.03 14.96 151.48 13.47Q151.93 11.97 151.93 10.67Q151.93 9.36 151.33 8.42Q151.23 8.26 151.1 8.1Q150.28 7.08 148.15 7.08Q145.82 7.08 143.94 7.99L143.92 8Q142.36 8.75 141.17 9.89Q140.91 10.13 140.68 10.39Q139.33 11.87 138.61 13.52Q137.89 15.17 137.89 16.69Q137.89 18.14 138.53 19.21Q138.6 19.34 138.68 19.46Q139.48 20.61 140.71 21.5Q141.96 22.38 143.36 23.17Q144.77 23.96 146 24.83Q147.25 25.69 148.04 26.81Q148.17 26.98 148.27 27.16Q148.84 28.16 148.84 29.47Q148.84 30.74 148.3 31.71Q148.1 32.06 147.84 32.36Q147.68 32.55 147.51 32.72Q146.61 33.63 145.3 34.13Q144.24 34.54 143.15 34.67Q142.65 34.73 142.14 34.73Q140.27 34.73 139.04 34.02Q138.12 33.49 137.55 32.7Q137.37 32.45 137.23 32.17Q137 31.74 136.87 31.29Q136.63 30.52 136.63 29.68Q136.63 28.42 137.13 27.17Q137.21 26.97 137.3 26.79Q137.79 25.74 138.61 24.86Q137.64 24.86 136.56 25.3Q136.33 25.39 136.11 25.51Q135.32 25.95 134.74 26.77Q134.16 27.59 134.03 28.92Q133.7 29.54 133.33 30.1Q132.49 31.41 131.55 32.2Q130.79 32.85 129.96 32.97Q129.77 33 129.57 33Q129.31 33 129.07 32.91Q128.67 32.78 128.35 32.41Q127.85 31.81 127.51 30.98Q127.16 30.15 126.98 29.39Q126.8 28.64 126.77 28.35Q127.3 28.35 128.15 28.12Q129 27.88 129.84 27.4Q130.1 27.25 130.33 27.07Q130.87 26.67 131.28 26.1Q131.39 25.96 131.48 25.8Q131.88 25.08 131.88 24.14Q131.88 23.47 131.64 22.9Q131.41 22.34 130.94 21.88Q130.49 21.42 129.95 21.19Q129.36 20.94 128.67 20.94Q128.48 20.94 128.28 20.96Q127.16 21.09 126.12 21.95Q124.9 22.95 123.85 24.54Q123.69 24.78 123.54 25.02Q122.68 26.38 122 27.85Q121.19 29.58 120.62 31.02Q120.62 29.15 121.2 26.39Q121.8 23.63 122.99 20.72Q124.57 19.75 125.92 18.38Q127.27 17.01 128.26 15.46Q129.25 13.91 129.79 12.38Q130.33 10.86 130.33 9.63Q130.33 8.66 130.02 7.97Q129.78 7.43 129.42 7.32Q129.32 7.29 129.21 7.29Q128.57 7.29 127.52 8.48Q126.48 9.67 125.26 11.69Q124.03 13.7 122.8 16.19Q121.58 18.67 120.55 21.31Q119.53 23.96 118.92 26.41Q118.75 27.08 118.63 27.71Q118.25 28.38 117.71 28.82Q117.01 29.39 116.29 29.63Q115.57 29.87 115 29.87Q114.73 29.87 114.47 29.82Q114.03 29.73 113.63 29.51Q114.67 27.91 115.35 26.21Q116.04 24.5 116.04 23.1Q116.04 21.9 115.54 21.11Q115.49 21.04 115.44 20.98Q114.91 20.32 113.56 20.32Q112.76 20.32 112.12 20.65Q111.87 20.77 111.65 20.95Q111.57 21.02 111.5 21.08Q110.82 21.69 110.44 22.63Q110.4 22.72 110.37 22.8Q110.02 23.77 110.02 24.86Q110.02 25.19 110.06 25.53Q110.16 26.59 110.58 27.62Q111.11 28.89 112.05 29.7Q112.1 29.74 112.15 29.79Q111.14 31.05 110.09 31.86Q109.06 32.67 108.3 32.67Q108.04 32.67 107.82 32.57Q107.56 32.45 107.36 32.19Q107 31.7 107 30.62Q107 29.94 107.27 28.97Q107.55 27.99 107.94 27Q108.34 26.01 108.79 25.23Q109.23 24.46 109.56 24.17Q109.38 24.1 109.18 24.05Q108.99 24 108.8 24Q108.78 24 108.76 24Q108.02 24.02 107.31 24.65Q106.57 25.29 105.97 26.33Q105.46 27.24 105.12 28.26Q104.87 28.58 104.57 28.82Q103.87 29.39 103.15 29.63Q102.43 29.87 101.86 29.87Q101.59 29.87 101.33 29.82Q100.89 29.73 100.49 29.51Q101.53 27.91 102.21 26.21Q102.9 24.5 102.9 23.1Q102.9 21.9 102.4 21.11Q102.35 21.04 102.3 20.98Q101.77 20.32 100.42 20.32Q99.62 20.32 98.98 20.65Q98.73 20.77 98.51 20.95Q98.43 21.02 98.36 21.08Q97.68 21.69 97.3 22.63Q97.26 22.72 97.23 22.8Q96.88 23.77 96.88 24.86Q96.88 25.19 96.92 25.53Q97.02 26.59 97.44 27.62Q97.97 28.89 98.91 29.7Q98.96 29.74 99.01 29.79Q98 31.05 96.95 31.86Q95.92 32.67 95.16 32.67Q94.9 32.67 94.68 32.57Q94.42 32.45 94.22 32.19Q93.86 31.7 93.86 30.62Q93.86 29.94 94.13 28.97Q94.41 27.99 94.8 27Q95.2 26.01 95.64 25.23Q96.09 24.46 96.42 24.17Q96.24 24.1 96.04 24.05Q95.85 24 95.66 24Q95.64 24 95.61 24Q94.88 24.02 94.17 24.65Q93.43 25.29 92.83 26.33Q92.24 27.38 91.88 28.57Q91.52 29.75 91.52 30.87Q91.52 32.21 92.14 33.15Q92.15 33.17 92.16 33.19Q92.29 33.37 92.44 33.52Q93.11 34.15 94.37 34.15Q95.73 34.15 97.19 33.07Q98.65 31.98 99.87 30.37Q100.27 30.54 100.7 30.64Q101.14 30.73 101.6 30.73Q102.79 30.73 104.1 30.02Q104.2 29.97 104.29 29.92Q104.55 29.76 104.78 29.56Q104.66 30.23 104.66 30.87Q104.66 32.21 105.28 33.15Q105.29 33.17 105.3 33.19Q105.43 33.37 105.58 33.52Q106.25 34.15 107.51 34.15Q108.87 34.15 110.33 33.07Q111.79 31.98 113.01 30.37Q113.41 30.54 113.84 30.64Q114.28 30.73 114.74 30.73Q115.93 30.73 117.24 30.02Q117.34 29.97 117.43 29.92Q117.97 29.59 118.41 29.07Q118.3 29.95 118.3 30.73Q118.3 31.55 118.36 32.33Q118.42 33.1 118.68 33.6Q118.8 33.83 118.99 33.95Q119.23 34.11 119.57 34.11Q119.68 34.11 119.79 34.09Q120.1 34.05 120.4 33.87Q120.79 33.65 121.01 33Q121.29 32.17 121.72 30.91Q122.16 29.65 122.77 28.25Q123.38 26.84 124.16 25.6Q124.93 24.36 125.9 23.58Q126.63 23 127.43 22.86Q127.71 22.81 127.99 22.81Q128.43 22.81 128.8 22.97Q129.03 23.07 129.25 23.24Q129.46 23.41 129.59 23.62Q129.79 23.96 129.79 24.43Q129.79 24.95 129.6 25.39Q129.47 25.72 129.23 26Q129.08 26.17 128.92 26.33Q128.47 26.77 127.88 27.07Q127.09 27.48 126.34 27.69Q125.58 27.88 125.19 27.88Q125.19 28.71 125.38 29.81Q125.4 29.94 125.43 30.06Q125.63 31.02 125.99 31.95Q126.41 33 127.13 33.68Q127.47 34 127.87 34.17Q128.33 34.37 128.86 34.37Q130.12 34.37 131.39 33.37Q132.67 32.38 133.71 30.82Q133.87 30.57 134.02 30.32Q134.15 31.95 134.95 33.12Q135 33.2 135.06 33.29Q135.47 33.83 135.96 34.27Q136.78 34.99 137.85 35.42Q138.26 35.59 138.69 35.72ZM183.87 33.53Q184.52 34.08 185.63 34.08Q185.92 34.08 186.21 34.03Q187.83 33.8 189.26 32.29Q190.2 31.3 191.06 29.92Q190.99 30.55 190.99 31.09Q190.99 32.85 191.82 33.75Q191.95 33.89 192.1 34.01Q192.89 34.65 194.19 34.65Q194.56 34.65 194.92 34.6Q196.23 34.44 197.47 33.71Q199.05 32.78 200.36 31.16Q200.64 30.82 200.89 30.46Q200.91 31.58 201.36 32.47Q201.61 32.95 201.99 33.37Q202.1 33.49 202.21 33.59Q203.3 34.58 205.28 34.58Q205.54 34.58 205.79 34.56Q207.33 34.45 208.82 33.7Q210.57 32.82 212.07 31.24Q213 30.24 213.74 29.02L213.74 29.03Q214.32 28.06 215.21 26.16Q216.12 24.25 216.95 22.12Q217.63 22.59 218.3 23.15Q218.39 23.23 218.47 23.32Q218.96 23.87 218.96 24.86Q218.96 25.8 218.47 26.97Q217.99 28.13 217.49 29.32Q216.99 30.51 216.99 31.59Q216.99 32.27 217.28 32.79Q217.44 33.05 217.68 33.28Q217.73 33.32 217.79 33.37Q218.48 33.93 219.61 33.93Q219.86 33.93 220.09 33.9Q221.39 33.78 222.62 33Q224.08 32.06 225.27 30.6Q226.45 29.15 227.14 27.63L226.66 27.27Q226.35 28.06 225.66 28.99Q224.98 29.9 224.11 30.73Q223.24 31.55 222.32 32.1Q221.41 32.63 220.55 32.63Q220.19 32.63 219.91 32.49Q219.85 32.46 219.79 32.42Q219.78 32.42 219.77 32.41Q219.47 32.18 219.47 31.55Q219.47 30.8 219.91 29.8Q220.37 28.79 220.82 27.67Q221.27 26.55 221.27 25.47Q221.27 24.35 220.73 23.62Q220.72 23.6 220.7 23.58Q220.2 22.91 219.55 22.41Q219.49 22.37 219.43 22.33Q218.71 21.8 218.15 21.38Q217.67 21.03 217.6 20.61Q217.59 20.54 217.59 20.47Q217.59 20.36 217.79 19.84Q217.99 19.32 217.99 19.13Q217.99 18.96 217.94 18.62Q217.91 18.47 217.83 18.39Q217.72 18.27 217.49 18.27Q217.2 18.27 216.58 18.96Q216.48 19.08 216.39 19.21Q215.98 19.83 215.98 20.72Q215.98 20.97 216.07 21.19Q216.16 21.41 216.34 21.59Q215.55 23.89 214.73 25.69Q214.11 27.06 213.68 27.93Q213.25 28.64 212.76 29.29Q212.36 29.83 211.91 30.33Q210.62 31.77 209.1 32.65Q207.73 33.45 206.31 33.52Q206.17 33.53 206.04 33.53Q205.21 33.53 204.65 33.28Q204.19 33.07 203.89 32.73Q203.83 32.66 203.77 32.58Q203.59 32.34 203.48 32.07Q203.38 31.84 203.32 31.6Q203.2 31.05 203.2 30.51Q203.2 30.23 203.23 29.9Q203.27 29.58 203.34 29.22Q204.88 29.08 206.45 28.48Q208.02 27.88 209.33 26.95Q210.65 26.01 211.46 24.8Q212 24 212.18 23.13Q212.27 22.69 212.27 22.23Q212.27 21.01 211.68 20.55Q211.62 20.51 211.56 20.47Q211.2 20.25 210.81 20.14Q210.44 20.03 210.04 20.03Q208.45 20.03 206.83 21.02Q205.21 22.02 203.86 23.6Q202.51 25.18 201.7 26.98Q201.22 28.07 201.02 29.08Q200.06 30.61 198.91 31.67Q197.2 33.24 195.42 33.32Q195.33 33.32 195.24 33.32Q194.37 33.32 193.9 32.89Q193.78 32.78 193.69 32.65Q193.23 31.98 193.23 30.44Q193.23 28.53 193.8 26.52Q194.38 24.5 195.2 22.59L195.74 22.59Q196.97 22.59 198.54 22.48Q200.1 22.38 202.08 22.16L202.08 21.51Q200.75 21.66 199.43 21.69Q198.12 21.73 196.93 21.73L195.6 21.73Q196.65 19.5 197.76 17.59Q198.88 15.68 199.63 14.29Q200.39 12.9 200.39 12.3Q200.39 11.97 200.23 11.78Q200.2 11.74 200.15 11.71Q199.98 11.56 199.79 11.52Q199.72 11.51 199.63 11.51Q199.09 11.51 198.32 12.35Q197.54 13.19 196.7 14.62Q195.86 16.04 194.99 17.86Q194.12 19.67 193.37 21.62Q192.87 21.59 192.46 21.55Q192.07 21.51 191.79 21.47L191.79 22.12Q192.07 22.23 192.39 22.29Q192.72 22.34 193.08 22.41Q192.18 24.86 191.58 27.19Q191.44 27.74 191.33 28.26Q190.91 29.09 190.39 29.88Q189.55 31.19 188.59 32.06Q187.66 32.91 186.72 32.92Q186.7 32.92 186.67 32.92Q186.28 32.92 185.98 32.75Q185.69 32.58 185.49 32.24Q185.09 31.55 185.09 30.15Q185.09 29.32 185.21 28.41Q185.34 27.48 185.56 26.52Q187.14 25.22 188.56 23.42Q189.1 22.74 189.61 22.03Q190.44 20.88 191.19 19.66Q192.4 17.69 193.27 15.77Q194.16 13.84 194.65 12.28Q195.13 10.71 195.13 9.74Q195.13 9.24 194.99 8.61Q194.85 7.97 194.59 7.52Q194.4 7.19 194.13 7.1Q194.04 7.08 193.94 7.08Q193.34 7.08 192.27 8.3Q191.21 9.52 189.94 11.58Q188.69 13.62 187.42 16.13Q186.16 18.63 185.1 21.26Q184.05 23.89 183.4 26.26Q183.18 27.04 183.04 27.74Q182.57 28.55 182.02 29.29Q181.61 29.83 181.16 30.33Q179.87 31.77 178.36 32.65Q176.98 33.45 175.57 33.52Q175.43 33.53 175.29 33.53Q174.47 33.53 173.9 33.28Q173.45 33.07 173.15 32.73Q173.08 32.66 173.02 32.58Q172.85 32.34 172.73 32.07Q172.63 31.84 172.58 31.6Q172.45 31.05 172.45 30.51Q172.45 30.23 172.49 29.9Q172.52 29.58 172.59 29.22Q174.14 29.08 175.71 28.48Q177.28 27.88 178.59 26.95Q179.91 26.01 180.71 24.8Q181.25 24 181.43 23.13Q181.52 22.69 181.52 22.23Q181.52 21.01 180.93 20.55Q180.88 20.51 180.82 20.47Q180.46 20.25 180.07 20.14Q179.69 20.03 179.29 20.03Q177.71 20.03 176.08 21.02Q174.47 22.02 173.11 23.6Q171.77 25.18 170.96 26.98Q170.47 28.07 170.28 29.08Q169.96 29.57 169.61 30.03Q168.6 31.34 167.57 32.13Q166.55 32.92 165.72 32.92Q165.44 32.92 165.22 32.81Q165.07 32.73 164.94 32.6Q164.64 32.27 164.64 31.55Q164.64 30.66 165.04 29.69Q165.43 28.71 165.81 27.67Q165.99 27.18 166.08 26.67Q166.19 26.1 166.19 25.51Q166.19 25.08 166.11 24.67Q166.04 24.32 165.92 23.98Q165.76 23.55 165.49 23.2Q165.3 22.96 165.05 22.76Q164.46 22.26 163.45 22.26Q163.09 22.26 162.74 22.33Q162.16 22.45 161.61 22.76Q160.75 23.24 159.98 24.13Q159.2 25.01 158.52 26.17Q157.84 27.34 157.24 28.73Q156.64 30.11 156.14 31.59Q156.11 31.34 156.09 31.05Q156.07 30.76 156.07 30.37Q156.07 29.39 156.21 28.15Q156.36 26.91 156.66 25.62Q156.97 24.32 157.4 23.27Q158.67 22.52 159.89 21.21Q161.11 19.89 162.16 18.31Q163.2 16.73 163.99 15.09Q164.78 13.45 165.23 12.01Q165.68 10.57 165.68 9.56Q165.68 8.84 165.41 8.07Q165.23 7.55 164.88 7.37Q164.71 7.29 164.49 7.29Q163.7 7.29 162.62 8.52Q161.54 9.74 160.32 11.8Q159.1 13.84 157.93 16.37Q156.76 18.88 155.82 21.51Q154.89 24.14 154.31 26.52Q153.74 28.89 153.74 30.62Q153.74 32.06 154.13 33.21Q154.47 34.2 155.02 34.34Q155.12 34.37 155.21 34.37Q155.23 34.37 155.25 34.37Q155.73 34.34 156.18 33.65Q156.64 32.92 157.11 31.79Q157.58 30.66 158.1 29.4Q158.63 28.13 159.22 27Q159.82 25.87 160.54 25.15Q161.05 24.63 161.66 24.48Q161.9 24.43 162.16 24.43Q162.48 24.43 162.75 24.55Q162.96 24.65 163.13 24.82Q163.53 25.22 163.53 26.16Q163.53 27.02 163.25 27.99Q162.98 28.96 162.69 29.9Q162.41 30.83 162.41 31.59Q162.41 32.22 162.67 32.72Q162.82 32.98 163.03 33.21Q163.08 33.25 163.12 33.29Q163.75 33.86 164.89 33.86Q165.21 33.86 165.53 33.81Q166.59 33.67 167.59 33.03Q168.89 32.2 169.97 30.78Q170.06 30.66 170.15 30.53Q170.18 31.61 170.62 32.47Q170.87 32.95 171.25 33.37Q171.35 33.49 171.47 33.59Q172.56 34.58 174.54 34.58Q174.79 34.58 175.05 34.56Q176.59 34.45 178.08 33.7Q179.83 32.82 181.32 31.24Q182.14 30.37 182.8 29.33Q182.74 29.88 182.74 30.37Q182.74 31.95 183.41 33.01Q183.6 33.32 183.87 33.53ZM77.56 19.61Q77.29 19.63 77.02 19.64Q77.95 16.44 79.01 13.41Q80.08 10.39 81.37 7.87Q81.55 7.83 81.71 7.83L82.05 7.83Q83.6 7.83 84.99 8.23Q86 8.52 86.74 9.13Q87.02 9.36 87.26 9.63Q88.14 10.64 88.14 12.51Q88.14 14.33 87.3 15.6Q87.23 15.72 87.14 15.83Q87.09 15.9 87.04 15.96Q86.08 17.2 84.53 17.98Q82.91 18.81 80.96 19.19Q79.27 19.51 77.56 19.61ZM188.33 22.4Q187.14 24.03 185.88 25.29Q186.49 23.2 187.37 21.04Q188.26 18.88 189.22 16.9Q190.2 14.92 191.13 13.38Q192.07 11.83 192.77 10.92Q193.48 9.99 193.77 9.99Q193.84 9.99 193.92 10.1Q194.01 10.21 194.01 10.57Q194.01 11.29 193.58 12.6Q193.15 13.91 192.36 15.58Q191.57 17.23 190.54 18.99Q189.51 20.75 188.33 22.4ZM125.78 17.17Q124.8 18.32 123.6 19.28Q124.64 16.87 125.76 14.8Q126.87 12.73 127.75 11.47Q128.64 10.21 129 10.21Q129.03 10.21 129.05 10.22Q129.08 10.24 129.09 10.28Q129.11 10.35 129.11 10.53Q129.11 11.44 128.42 13Q127.74 14.56 126.5 16.26Q126.15 16.73 125.78 17.17ZM159.83 19.86Q158.88 21.08 157.87 21.87Q158.2 20.82 158.59 19.8Q159.02 18.68 159.53 17.59Q160.5 15.5 161.5 13.84Q162.52 12.19 163.29 11.2Q164.06 10.21 164.32 10.21Q164.35 10.21 164.38 10.22Q164.4 10.24 164.42 10.27Q164.46 10.32 164.46 10.5Q164.46 11.03 164.1 12.11Q163.74 13.19 163.09 14.53Q162.45 15.86 161.61 17.25Q160.78 18.63 159.83 19.86ZM174.97 27.58Q173.75 28.21 172.78 28.53Q173.14 27.24 173.85 25.95Q174.57 24.65 175.47 23.56Q176.37 22.48 177.34 21.82Q178.32 21.15 179.19 21.15Q179.64 21.15 179.79 21.36Q179.79 21.36 179.79 21.37Q179.94 21.59 179.94 21.98Q179.94 22.23 179.91 22.48Q179.78 23.36 179.2 24.18Q178.46 25.22 177.33 26.09Q176.2 26.95 174.97 27.58ZM205.71 27.58Q204.49 28.21 203.52 28.53Q203.88 27.24 204.59 25.95Q205.32 24.65 206.21 23.56Q207.12 22.48 208.08 21.82Q209.06 21.15 209.93 21.15Q210.39 21.15 210.53 21.36Q210.53 21.36 210.54 21.37Q210.69 21.59 210.69 21.98Q210.69 22.23 210.65 22.48Q210.52 23.36 209.95 24.18Q209.21 25.22 208.08 26.09Q206.94 26.95 205.71 27.58ZM101.15 26.07Q100.56 27.52 99.66 28.86Q99.05 28.13 98.74 27.07Q98.43 26.01 98.43 24.97Q98.43 23.38 99.19 22.34Q99.95 21.3 100.66 21.3Q100.81 21.3 100.95 21.34Q101.23 21.45 101.44 21.78Q101.74 22.26 101.74 23.31Q101.74 24.61 101.15 26.07ZM114.29 26.07Q113.7 27.52 112.8 28.86Q112.19 28.13 111.88 27.07Q111.57 26.01 111.57 24.97Q111.57 23.38 112.33 22.34Q113.09 21.3 113.8 21.3Q113.95 21.3 114.09 21.34Q114.37 21.45 114.58 21.78Q114.88 22.26 114.88 23.31Q114.88 24.61 114.29 26.07Z" fill="#000000" fill-opacity="1.000000" fill-rule="evenodd"/>
</svg>
