<svg width="23.000000" height="23.000000" viewBox="0 0 23 23" fill="none" xmlns="http://www.w3.org/2000/svg" xmlns:xlink="http://www.w3.org/1999/xlink">
	<desc>
			Created with Pixso.
	</desc>
	<defs/>
	<path id="Vector" d="M4.9 16.1L3.37 19.66L6.93 18.13C6.13 17.55 5.44 16.86 4.9 16.1Z" fill="#FFCE31" fill-opacity="1.000000" fill-rule="nonzero"/>
	<path id="Vector" d="M18.09 6.89L19.62 3.33L16.1 4.86C16.86 5.44 17.55 6.13 18.09 6.89Z" fill="#FFCE31" fill-opacity="1.000000" fill-rule="nonzero"/>
	<path id="Vector" d="M3.6 10.08L0 11.5L3.6 12.91C3.48 12.45 3.45 11.99 3.45 11.5C3.45 11 3.48 10.54 3.6 10.08Z" fill="#FFCE31" fill-opacity="1.000000" fill-rule="nonzero"/>
	<path id="Vector" d="M19.39 12.91L23 11.5L19.39 10.08C19.47 10.54 19.54 11.04 19.54 11.5C19.54 11.99 19.51 12.45 19.39 12.91Z" fill="#FFCE31" fill-opacity="1.000000" fill-rule="nonzero"/>
	<path id="Vector" d="M6.89 4.9L3.33 3.37L4.86 6.93C5.44 6.13 6.13 5.44 6.89 4.9Z" fill="#FFCE31" fill-opacity="1.000000" fill-rule="nonzero"/>
	<path id="Vector" d="M16.1 18.09L19.66 19.62L18.13 16.06C17.55 16.86 16.86 17.55 16.1 18.09Z" fill="#FFCE31" fill-opacity="1.000000" fill-rule="nonzero"/>
	<path id="Vector" d="M12.91 3.6L11.5 0L10.08 3.6C10.54 3.52 11.04 3.45 11.5 3.45C11.96 3.45 12.45 3.48 12.91 3.6Z" fill="#FFCE31" fill-opacity="1.000000" fill-rule="nonzero"/>
	<path id="Vector" d="M10.08 19.39L11.5 23L12.91 19.39C12.45 19.51 11.99 19.54 11.5 19.54C11 19.54 10.54 19.51 10.08 19.39Z" fill="#FFCE31" fill-opacity="1.000000" fill-rule="nonzero"/>
	<path id="Vector" d="M18.78 11.5C18.78 15.52 15.52 18.78 11.5 18.78C7.47 18.78 4.21 15.52 4.21 11.5C4.21 7.47 7.47 4.21 11.5 4.21C15.52 4.21 18.78 7.47 18.78 11.5Z" fill="#FFCE31" fill-opacity="1.000000" fill-rule="evenodd"/>
</svg>
